<svg xmlns="http://www.w3.org/2000/svg" viewBox="0 0 820 280" role="img" aria-label="Moore Quality Air — Heating, Cooling, Plumbing">
  <style>
    .wm  { font-family: Georgia, "Times New Roman", serif; font-weight: 700; fill: #111; }
    .red { fill: #b11e27; }
    .tag { font-family: Georgia, serif; font-weight: 700; fill: #b11e27; letter-spacing: .03em; }
  </style>

  <!-- Tornado funnel (stylized), centered between the two words -->
  <g class="red" transform="translate(300 16)">
    <path d="M2 6 C46 -8 104 -2 132 14 C104 8 46 6 8 18 Z"/>
    <path d="M10 34 C48 22 96 24 118 38 C92 32 50 34 16 44 Z"/>
    <path d="M18 60 C50 50 90 52 106 64 C86 58 52 60 24 70 Z"/>
    <path d="M26 86 C54 78 86 80 98 90 C80 84 54 86 32 96 Z"/>
    <path d="M36 112 C58 106 80 108 90 116 C74 110 56 112 42 122 Z"/>
    <path d="M46 138 C62 133 78 135 84 142 C72 137 58 137 52 148 Z"/>
    <path d="M56 164 C66 160 76 162 80 168 C71 164 64 164 60 172 Z"/>
  </g>

  <!-- Wordmark: fixed textLength so words always fit the canvas -->
  <text x="20"  y="118" class="wm" font-size="96" textLength="250" lengthAdjust="spacingAndGlyphs">Moore</text>
  <text x="448" y="118" class="wm" font-size="96" textLength="330" lengthAdjust="spacingAndGlyphs">Quality</text>
  <text x="410" y="214" class="wm" font-size="96" textLength="150" lengthAdjust="spacingAndGlyphs" text-anchor="middle">Air</text>

  <!-- Divider + tagline -->
  <rect x="20" y="238" width="780" height="5" class="red"/>
  <text x="410" y="276" text-anchor="middle" class="tag" font-size="30" textLength="600" lengthAdjust="spacingAndGlyphs">HEATING · COOLING · PLUMBING</text>
</svg>
