<svg xmlns="http://www.w3.org/2000/svg" viewBox="0 0 820 360" role="img" aria-label="Moore Quality Air">
  <style>
    .wm { font-family: Georgia, "Times New Roman", serif; font-weight: 700; fill: #111; }
  </style>

  <!-- ===== Tornado funnel (centered ~x=372, clear of the words) ===== -->
  <g>
    <!-- cone body -->
    <path fill="#cc1326" d="
      M308 100
      C304 82 340 74 372 76
      C410 78 440 86 434 104
      C424 156 406 222 380 302
      L372 320
      L364 302
      C340 222 322 156 308 100 Z"/>
    <!-- top curl (inward spiral) -->
    <path fill="#cc1326" d="
      M372 76
      C381 55 412 53 425 69
      C434 81 426 96 409 94
      C419 88 417 72 403 71
      C389 70 379 80 373 91 Z"/>
    <!-- white spiral bands (the wraps) -->
    <g fill="none" stroke="#ffffff" stroke-linecap="round">
      <path stroke-width="7" d="M314 116 Q372 132 430 113"/>
      <path stroke-width="7" d="M322 142 Q372 158 423 139"/>
      <path stroke-width="6" d="M330 168 Q372 182 415 165"/>
      <path stroke-width="6" d="M338 194 Q372 206 407 191"/>
      <path stroke-width="5" d="M346 220 Q372 230 399 217"/>
      <path stroke-width="5" d="M355 246 Q372 254 390 243"/>
      <path stroke-width="4" d="M362 272 Q372 279 383 270"/>
    </g>
  </g>

  <!-- ===== Wordmark ===== -->
  <text x="14"  y="206" class="wm" font-size="96" textLength="246" lengthAdjust="spacingAndGlyphs">Moore</text>
  <text x="466" y="206" class="wm" font-size="96" textLength="326" lengthAdjust="spacingAndGlyphs">Quality</text>
  <!-- "Air": A and r flank the funnel point (the funnel is the 'i') -->
  <text x="282" y="330" class="wm" font-size="96">A</text>
  <text x="400" y="330" class="wm" font-size="96">r</text>
</svg>
